<svg xmlns="http://www.w3.org/2000/svg" viewBox="0 0 64 64">
  <defs>
    <linearGradient id="bg" x1="0" y1="0" x2="1" y2="1">
      <stop offset="0" stop-color="#fff9f2"/>
      <stop offset="1" stop-color="#efd6ce"/>
    </linearGradient>
    <linearGradient id="ribbon" x1="0" y1="0" x2="1" y2="1">
      <stop offset="0" stop-color="#b97863"/>
      <stop offset="1" stop-color="#5e4339"/>
    </linearGradient>
  </defs>
  <rect width="64" height="64" rx="18" fill="url(#bg)"/>
  <path d="M17 18c7 0 11 4 15 9 4-5 8-9 15-9 4 0 8 3 8 8 0 6-5 11-10 15-4 3-8 6-13 10-5-4-9-7-13-10-5-4-10-9-10-15 0-5 4-8 8-8z" fill="#fffdf9" opacity=".95"/>
  <path d="M17 28c5-6 12-10 15-10s10 4 15 10c-3 3-6 6-7 10-2-4-5-7-8-7s-6 3-8 7c-1-4-4-7-7-10z" fill="url(#ribbon)"/>
  <path d="M24 39c3-4 5-6 8-6s5 2 8 6" fill="none" stroke="#efd6ce" stroke-linecap="round" stroke-width="4"/>
</svg>
